<svg width="48" height="48" viewBox="0 0 48 48" fill="none" xmlns="http://www.w3.org/2000/svg">
<rect width="48" height="48" rx="24" fill="#22222B"/>
<path d="M27.9901 13.1516C28.8236 12.1794 29.4112 10.8525 29.4112 9.51238C29.4112 9.32845 29.3975 9.14452 29.3702 9C28.0037 9.05255 26.364 9.8671 25.3938 10.9707C24.6149 11.8115 23.9043 13.1516 23.9043 14.4917C23.9043 14.7019 23.9453 14.8989 23.959 14.9646C24.041 14.9778 24.1776 15.004 24.328 15.004C25.5441 15.004 27.0745 14.2158 27.9901 13.1516ZM28.9466 15.2799C26.9106 15.2799 25.2435 16.4755 24.1776 16.4755C23.0435 16.4755 21.5677 15.3588 19.7913 15.3588C16.4161 15.3588 13 18.0389 13 23.0839C13 26.237 14.2571 29.5609 15.8286 31.7024C17.1677 33.5154 18.3429 35 20.0373 35C21.7043 35 22.4422 33.9358 24.5193 33.9358C26.6236 33.9358 27.1019 34.9737 28.9466 34.9737C30.7776 34.9737 31.9938 33.3578 33.1553 31.7681C34.4398 29.9419 34.9863 28.1683 35 28.0763C34.8907 28.05 31.3925 26.6705 31.3925 22.8211C31.3925 19.4841 34.1391 17.9864 34.3031 17.8681C32.4857 15.3588 29.7118 15.2799 28.9466 15.2799Z" fill="white"/>
</svg>
