<svg width="48" height="48" viewBox="0 0 48 48" fill="none" xmlns="http://www.w3.org/2000/svg">
<rect width="48" height="48" rx="24" fill="#EBEBEB"/>
<path d="M12.7727 33.7527H16.9091V23.7072L11 19.2754V31.9799C11 32.9609 11.7948 33.7527 12.7727 33.7527Z" fill="#4285F4"/>
<path d="M31.0908 33.7527H35.2272C36.2081 33.7527 36.9999 32.9579 36.9999 31.9799V19.2754L31.0908 23.7072" fill="#34A853"/>
<path d="M31.0908 16.0253V23.7071L36.9999 19.2753V16.9117C36.9999 14.7194 34.4974 13.4696 32.7454 14.7844" fill="#FBBC04"/>
<path d="M16.9092 23.7072V16.0254L24.0001 21.3436L31.091 16.0254V23.7072L24.0001 29.0254" fill="#EA4335"/>
<path d="M11 16.9117V19.2753L16.9091 23.7071V16.0253L15.2546 14.7844C13.4995 13.4696 11 14.7194 11 16.9117Z" fill="#C5221F"/>
</svg>
