<svg width="87" height="23" viewBox="0 0 87 23" fill="none" xmlns="http://www.w3.org/2000/svg">
<path d="M7.9664 19.0539C6.8258 19.0539 5.76836 18.9396 4.7941 18.7112C3.83171 18.4713 2.98814 18.1286 2.26338 17.6831C1.55051 17.2262 0.992087 16.6664 0.588123 16.0039C0.196041 15.3413 0 14.5817 0 13.725C0 13.6336 0 13.5422 0 13.4508C0 13.348 0 13.2623 0 13.1938H3.04755C3.04755 13.2623 3.04755 13.3194 3.04755 13.3651C3.04755 13.4108 3.04755 13.4794 3.04755 13.5707C3.04755 14.496 3.4931 15.2043 4.38419 15.6955C5.27529 16.1752 6.49312 16.4151 8.03769 16.4151C8.98819 16.4151 9.8377 16.3237 10.5862 16.141C11.3347 15.9582 11.9229 15.6783 12.3506 15.3014C12.7902 14.9244 13.01 14.4503 13.01 13.8792C13.01 12.931 12.5466 12.2571 11.6199 11.8573C10.705 11.446 9.33275 11.0919 7.50303 10.7949C6.54064 10.635 5.62579 10.4294 4.75845 10.1781C3.89112 9.91533 3.11884 9.57834 2.4416 9.16711C1.77625 8.75587 1.24753 8.24754 0.855452 7.64211C0.475251 7.02526 0.285151 6.28846 0.285151 5.43173C0.285151 4.32368 0.623767 3.38697 1.301 2.62162C1.99011 1.84484 2.91685 1.25655 4.08122 0.856739C5.24558 0.445504 6.54064 0.239886 7.9664 0.239886C9.34463 0.239886 10.6159 0.451215 11.7803 0.873874C12.9447 1.29653 13.8773 1.91338 14.5783 2.72443C15.2912 3.52405 15.6476 4.51216 15.6476 5.68875C15.6476 5.73444 15.6476 5.79156 15.6476 5.86009C15.6476 5.91721 15.6476 5.97433 15.6476 6.03144H12.6179C12.6179 5.97433 12.6179 5.92863 12.6179 5.89436C12.6179 5.86009 12.6179 5.82011 12.6179 5.77442C12.6179 5.11188 12.3981 4.56927 11.9585 4.14662C11.5189 3.71254 10.9486 3.39269 10.2476 3.18707C9.54661 2.97003 8.79809 2.86151 8.00204 2.86151C7.25352 2.86151 6.51688 2.94147 5.79212 3.10139C5.06737 3.2499 4.46736 3.50121 3.99211 3.85533C3.51686 4.20944 3.27923 4.69493 3.27923 5.31178C3.27923 5.92863 3.49904 6.42554 3.93864 6.80251C4.39013 7.16805 5.01984 7.47076 5.82777 7.71065C6.64758 7.93911 7.60996 8.15044 8.71492 8.34464C9.70106 8.51599 10.6337 8.73303 11.513 8.99576C12.3922 9.24707 13.1645 9.57263 13.8298 9.97244C14.507 10.3723 15.0358 10.8806 15.416 11.4974C15.808 12.1029 16.0041 12.8454 16.0041 13.725C16.0041 14.616 15.7902 15.3927 15.3625 16.0553C14.9467 16.7178 14.3645 17.2719 13.6159 17.7174C12.8793 18.1629 12.0239 18.4941 11.0496 18.7112C10.0872 18.9396 9.05947 19.0539 7.9664 19.0539Z" fill="#22222B"/>
<path d="M17.0929 23V9.28705C17.0929 7.20803 17.4374 5.48313 18.1266 4.11235C18.8157 2.74156 19.7662 1.71348 20.9781 1.02809C22.2137 0.342695 23.6276 0 25.2197 0C27.0732 0 28.6534 0.388388 29.9603 1.16516C31.291 1.91909 32.3009 3.01572 32.99 4.45504C33.6792 5.89436 34.0237 7.64211 34.0237 9.69829C34.0237 11.6402 33.6554 13.3194 32.9188 14.7359C32.1821 16.1295 31.1603 17.2033 29.8534 17.9573C28.5702 18.6883 27.0969 19.0539 25.4335 19.0539C24.483 19.0539 23.5563 18.9282 22.6533 18.6769C21.7504 18.4028 20.9543 18.0144 20.2652 17.5117H20.087C20.1345 17.8773 20.1701 18.4713 20.1939 19.2938C20.2177 20.1162 20.2295 21.9719 20.2295 23H17.0929ZM25.3979 16.5522C26.5385 16.5522 27.5128 16.2895 28.3207 15.764C29.1286 15.2385 29.7346 14.4732 30.1385 13.4679C30.5663 12.4398 30.7801 11.1833 30.7801 9.69829C30.7801 7.25372 30.293 5.44886 29.3187 4.28369C28.3682 3.11853 26.9781 2.53595 25.1484 2.53595C23.5563 2.53595 22.3444 3.10711 21.5127 4.24943C20.681 5.3689 20.2652 7.05953 20.2652 9.32132V14.873C20.9543 15.4441 21.7385 15.8668 22.6177 16.141C23.5207 16.4151 24.4474 16.5522 25.3979 16.5522Z" fill="#22222B"/>
<path d="M41.7751 19.0539C40.3375 19.0539 39.0781 18.8368 37.9969 18.4028C36.9276 17.9687 36.0959 17.3461 35.5018 16.5351C34.9078 15.7126 34.6107 14.7302 34.6107 13.5879C34.6107 12.3999 34.9315 11.4118 35.5731 10.6236C36.2147 9.82394 37.1177 9.20138 38.282 8.75587C39.4464 8.31037 40.8009 8.01337 42.3454 7.86486C44.6742 7.6364 46.3316 7.41365 47.3178 7.19661C48.3039 6.96814 48.797 6.6026 48.797 6.09998C48.797 6.08856 48.797 6.08285 48.797 6.08285C48.797 6.07142 48.797 6.06 48.797 6.04858C48.797 4.99764 48.3514 4.21516 47.4603 3.70111C46.5692 3.17565 45.2801 2.91291 43.593 2.91291C41.8345 2.91291 40.4682 3.20992 39.4939 3.80392C38.5197 4.3865 38.0325 5.33463 38.0325 6.64829H35.0384C35.0384 5.28894 35.4008 4.13519 36.1256 3.18707C36.8503 2.22752 37.8543 1.49644 39.1375 0.993817C40.4325 0.491196 41.9236 0.239886 43.6108 0.239886C45.1554 0.239886 46.5455 0.468349 47.7811 0.925276C49.0287 1.37078 50.0148 2.03904 50.7396 2.93005C51.4762 3.80963 51.8445 4.90055 51.8445 6.20279C51.8445 6.44268 51.8445 6.68256 51.8445 6.92245C51.8445 7.15091 51.8445 7.38509 51.8445 7.62498V15.2842C51.8445 15.684 51.8623 16.0724 51.898 16.4494C51.9336 16.8264 51.993 17.1576 52.0762 17.4432C52.1831 17.7859 52.3019 18.0658 52.4326 18.2828C52.5633 18.4884 52.6703 18.6312 52.7534 18.7112H49.7059C49.6465 18.6541 49.5574 18.5227 49.4386 18.3171C49.3197 18.1 49.2069 17.8487 49.0999 17.5632C49.0168 17.3347 48.9514 17.0491 48.9039 16.7064C48.8564 16.3523 48.8326 15.9868 48.8326 15.6098L49.3316 15.9353C48.9633 16.5522 48.4227 17.0948 47.7098 17.5632C47.0088 18.0315 46.1593 18.397 45.1613 18.6598C44.1633 18.9225 43.0345 19.0539 41.7751 19.0539ZM42.2563 16.4323C43.4801 16.4323 44.5851 16.2552 45.5712 15.9011C46.5574 15.5355 47.3415 14.9986 47.9237 14.2904C48.5059 13.5822 48.797 12.7026 48.797 11.6517V8.03621L49.4742 9.13284C48.7138 9.41842 47.7633 9.65259 46.6227 9.83537C45.494 10.0067 44.3118 10.1495 43.0761 10.2637C41.2821 10.4237 39.9276 10.7264 39.0127 11.1719C38.1098 11.6174 37.6583 12.3656 37.6583 13.4165C37.6583 14.4104 38.0325 15.1643 38.7811 15.6783C39.5296 16.1809 40.688 16.4323 42.2563 16.4323Z" fill="#22222B"/>
<path d="M66.976 18.7112V9.98958C66.976 9.46411 66.976 9.03574 66.976 8.70447C66.976 8.36177 66.976 8.03621 66.976 7.72779C66.976 6.77966 66.8096 5.95148 66.477 5.24324C66.1443 4.535 65.6215 3.98669 64.9086 3.5983C64.1957 3.20991 63.2631 3.01572 62.1106 3.01572C61.1007 3.01572 60.1621 3.26703 59.2947 3.76965C58.4393 4.26085 57.7502 4.9291 57.2274 5.77442C56.7165 6.60831 56.461 7.54501 56.461 8.58453L54.7323 7.95054C54.7323 6.52264 55.0947 5.22611 55.8194 4.06094C56.5561 2.89578 57.5303 1.9705 58.7422 1.28511C59.966 0.588293 61.2967 0.239886 62.7343 0.239886C64.1957 0.239886 65.473 0.508331 66.5661 1.04522C67.6591 1.58211 68.5027 2.35318 69.0968 3.35842C69.7027 4.35223 70.0057 5.55167 70.0057 6.95672C70.0057 7.45934 70.0057 8.00765 70.0057 8.60166C70.0057 9.19567 70.0057 9.74969 70.0057 10.2637V18.7112H66.976ZM53.4313 18.7112V0.514042H56.461V18.7112H53.4313Z" fill="#22222B"/>
<path d="M78.9623 19.0539C77.8217 19.0539 76.7643 18.9396 75.79 18.7112C74.8276 18.4713 73.9841 18.1286 73.2593 17.6831C72.5464 17.2262 71.988 16.6664 71.584 16.0039C71.192 15.3413 70.9959 14.5817 70.9959 13.725C70.9959 13.6336 70.9959 13.5422 70.9959 13.4508C70.9959 13.348 70.9959 13.2623 70.9959 13.1938H74.0435C74.0435 13.2623 74.0435 13.3194 74.0435 13.3651C74.0435 13.4108 74.0435 13.4794 74.0435 13.5707C74.0435 14.496 74.489 15.2043 75.3801 15.6955C76.2712 16.1752 77.489 16.4151 79.0336 16.4151C79.9841 16.4151 80.8336 16.3237 81.5821 16.141C82.3307 15.9582 82.9188 15.6783 83.3465 15.3014C83.7861 14.9244 84.0059 14.4503 84.0059 13.8792C84.0059 12.931 83.5425 12.2571 82.6158 11.8573C81.701 11.446 80.3287 11.0919 78.499 10.7949C77.5366 10.635 76.6217 10.4294 75.7544 10.1781C74.887 9.91533 74.1148 9.57834 73.4375 9.16711C72.7722 8.75587 72.2434 8.24754 71.8514 7.64211C71.4712 7.02526 71.2811 6.28846 71.2811 5.43173C71.2811 4.32368 71.6197 3.38697 72.2969 2.62162C72.986 1.84484 73.9128 1.25655 75.0771 0.856739C76.2415 0.445504 77.5366 0.239886 78.9623 0.239886C80.3406 0.239886 81.6118 0.451215 82.7762 0.873874C83.9406 1.29653 84.8733 1.91338 85.5742 2.72443C86.2871 3.52405 86.6436 4.51216 86.6436 5.68875C86.6436 5.73444 86.6436 5.79156 86.6436 5.86009C86.6436 5.91721 86.6436 5.97433 86.6436 6.03144H83.6138C83.6138 5.97433 83.6138 5.92863 83.6138 5.89436C83.6138 5.86009 83.6138 5.82011 83.6138 5.77442C83.6138 5.11188 83.394 4.56927 82.9544 4.14662C82.5148 3.71254 81.9445 3.39269 81.2435 3.18707C80.5425 2.97003 79.794 2.86151 78.998 2.86151C78.2494 2.86151 77.5128 2.94147 76.788 3.10139C76.0633 3.2499 75.4633 3.50121 74.988 3.85533C74.5128 4.20944 74.2752 4.69493 74.2752 5.31178C74.2752 5.92863 74.495 6.42554 74.9346 6.80251C75.3861 7.16805 76.0158 7.47076 76.8237 7.71065C77.6435 7.93911 78.6059 8.15044 79.7108 8.34464C80.697 8.51599 81.6297 8.73303 82.5089 8.99576C83.3881 9.24707 84.1604 9.57263 84.8257 9.97244C85.503 10.3723 86.0317 10.8806 86.4119 11.4974C86.804 12.1029 87 12.8454 87 13.725C87 14.616 86.7861 15.3927 86.3584 16.0553C85.9426 16.7178 85.3604 17.2719 84.6119 17.7174C83.8752 18.1629 83.0198 18.4941 82.0455 18.7112C81.0831 18.9396 80.0554 19.0539 78.9623 19.0539Z" fill="#22222B"/>
</svg>
