<svg width="48" height="48" viewBox="0 0 48 48" fill="none" xmlns="http://www.w3.org/2000/svg">
<rect width="48" height="48" rx="24" fill="#FF0000"/>
<path d="M22.8257 12.1311C18.9298 12.5767 15.0476 15.8062 14.8874 20.4195C14.7867 23.2362 15.5672 25.3493 18.1835 25.9427C19.3189 23.8905 17.8173 23.4379 17.5838 21.9533C16.6247 15.8696 24.4325 11.7207 28.5184 15.9681C31.3454 18.9091 29.4844 27.9573 24.9247 27.0168C20.5572 26.1186 27.0626 18.9161 23.5765 17.5019C20.7427 16.3527 19.2365 21.0175 20.5801 23.3347C19.7927 27.3194 18.0966 31.0742 18.7833 36.0721C21.0105 34.4163 21.7613 31.2455 22.377 27.9386C23.4963 28.6351 24.0938 29.3598 25.5221 29.4724C30.7891 29.8899 33.7305 24.0852 33.0118 18.7308C32.3731 13.9839 27.7493 11.5682 22.8257 12.1311Z" fill="white"/>
</svg>
