<svg width="34" height="39" viewBox="0 0 34 39" fill="none" xmlns="http://www.w3.org/2000/svg">
<path d="M29.2014 8.77C28.9483 8.63908 28.7018 8.49556 28.4631 8.34C27.7692 7.88121 27.1329 7.34066 26.5681 6.73C25.1531 5.11167 24.6247 3.47 24.4314 2.32167H24.4381C24.2764 1.36667 24.3431 0.75 24.3547 0.75H17.9131V25.655C17.9131 25.9883 17.9131 26.32 17.8997 26.6467C17.8997 26.6867 17.8947 26.7233 17.8931 26.7683C17.8931 26.785 17.8931 26.805 17.8881 26.8233V26.8383C17.8204 27.7317 17.5342 28.5947 17.0547 29.3515C16.5752 30.1083 15.917 30.7357 15.1381 31.1783C14.3254 31.6406 13.4063 31.8831 12.4714 31.8817C9.47138 31.8817 7.03805 29.435 7.03805 26.4133C7.03805 23.39 9.47138 20.9433 12.4714 20.9433C13.0397 20.9433 13.6047 21.0333 14.1447 21.21L14.1531 14.65C12.5131 14.4384 10.847 14.5691 9.26011 15.0338C7.67319 15.4985 6.19983 16.2872 4.93305 17.35C3.82281 18.3142 2.88936 19.4648 2.17472 20.75C1.90305 21.2183 0.876383 23.1033 0.753049 26.16C0.674716 27.8933 1.19638 29.6933 1.44472 30.435V30.4517C1.59972 30.8883 2.20638 32.3817 3.19305 33.64C3.98871 34.65 4.9288 35.5373 5.98305 36.2733V36.2567L5.99805 36.2733C9.11472 38.39 12.5731 38.2517 12.5731 38.2517C13.1714 38.2267 15.1764 38.2517 17.4531 37.1733C19.9781 35.9767 21.4147 34.195 21.4147 34.195C22.3332 33.1302 23.0637 31.9167 23.5747 30.6067C24.1581 29.0733 24.3514 27.2367 24.3514 26.5033V13.2883C24.4297 13.335 25.4714 14.0233 25.4714 14.0233C25.4714 14.0233 26.9714 14.985 29.3097 15.61C30.9864 16.055 33.2481 16.15 33.2481 16.15V9.755C32.4564 9.84167 30.8481 9.59167 29.1997 8.77167L29.2014 8.77Z" fill="#22222B"/>
</svg>
