<svg width="48" height="48" viewBox="0 0 48 48" fill="none" xmlns="http://www.w3.org/2000/svg">
<rect width="48" height="48" rx="24" fill="#2787F5"/>
<path fill-rule="evenodd" clip-rule="evenodd" d="M38.0052 17.0886C38.208 16.4541 38.0052 15.9878 37.0398 15.9878H33.8474C33.0357 15.9878 32.6615 16.3906 32.4585 16.8347C32.4585 16.8347 30.8351 20.5467 28.5353 22.9579C27.7912 23.6559 27.453 23.8779 27.0471 23.8779C26.8442 23.8779 26.5505 23.6559 26.5505 23.0214V17.0886C26.5505 16.3271 26.3149 15.9878 25.6384 15.9878H20.6219C20.1146 15.9878 19.8095 16.3412 19.8095 16.6761C19.8095 17.398 20.9594 17.5644 21.0779 19.5949V24.0049C21.0779 24.9718 20.8918 25.1471 20.4859 25.1471C19.4037 25.1471 16.7712 21.4185 15.2098 17.152C14.9038 16.3228 14.5969 15.9878 13.7811 15.9878H10.5887C9.67657 15.9878 9.49414 16.3906 9.49414 16.8347C9.49414 17.6279 10.5764 21.562 14.5334 26.7651C17.1714 30.3184 20.8882 32.2445 24.2703 32.2445C26.2995 32.2445 26.5505 31.8167 26.5505 31.0798V28.3942C26.5505 27.5386 26.7428 27.3679 27.3854 27.3679C27.8589 27.3679 28.6706 27.5899 30.5646 29.3031C32.7291 31.3336 33.0859 32.2445 34.3035 32.2445H37.4958C38.4079 32.2445 38.864 31.8167 38.6009 30.9724C38.313 30.131 37.2796 28.9102 35.9083 27.463C35.1642 26.6382 34.0481 25.7499 33.7099 25.3056C33.2364 24.7346 33.3717 24.4807 33.7099 23.9732C33.7099 23.9732 37.5993 18.8335 38.0052 17.0886Z" fill="white"/>
</svg>
